ffmpeg started on 2025-05-26 at 19:14:26
Report written to "D:\Convert\FFMetrics\reports\psnr_report-6.txt"
Log level: 32
Command line:
ffmpeg -hide_banner -nostdin -i "G:\\\xc0\xed\xe8\xec\xe5\\\xce\xed\xe3\xee\xe8\xed\xe3\xe8\\!_34_\xc2\xe5\xf1\xed\xe0_2024\\DreamCast\\\xcc\xee\xe9 \xf1\xee\xf1\xe5\xe4-\xb8\xea\xe0\xe9\\[DC] Tonari no Youkai-san - 07_Telegram_HEVC.mkv" -i "G:\\\xc0\xed\xe8\xec\xe5\\\xce\xed\xe3\xee\xe8\xed\xe3\xe8\\!_34_\xc2\xe5\xf1\xed\xe0_2024\\DreamCast\\\xcc\xee\xe9 \xf1\xee\xf1\xe5\xe4-\xb8\xea\xe0\xe9\\[DC] Tonari no Youkai-san - 07_Telegram.mp4" -lavfi "[0:v]settb=AVTB,setpts=PTS-STARTPTS,format=pix_fmts=yuv420p10,fps=24000/1001,scale=1920:1080:flags=bicubic[main];[1:v]settb=AVTB,setpts=PTS-STARTPTS,format=pix_fmts=yuv420p,fps=24000/1001,scale=1920:1080:flags=bicubic[ref];[main][ref]psnr=eof_action=endall:stats_file='D\\:/Convert/FFMetrics/logs/psnr_logfile-6.txt'" -f null -
Input #0, matroska,webm, from 'G:\Аниме\Онгоинги\!_34_Весна_2024\DreamCast\Мой сосед-ёкай\[DC] Tonari no Youkai-san - 07_Telegram_HEVC.mkv':
  Metadata:
    COMPATIBLE_BRANDS: isomiso2avc1mp41
    MAJOR_BRAND     : isom
    MINOR_VERSION   : 512
    ENCODER         : Lavf61.7.100
  Duration: 00:23:46.69, start: -0.021000, bitrate: 835 kb/s
  Stream #0:0: Video: hevc (Main 10), yuv420p10le(tv, bt709, progressive), 1920x1080 [SAR 1:1 DAR 16:9], 23.98 fps, 23.98 tbr, 1k tbn (default)
      Metadata:
        HANDLER_NAME    : VideoHandler
        VENDOR_ID       : [0][0][0][0]
        ENCODER         : Lavc61.19.100 libx265
        BPS             : 637878
        DURATION        : 00:23:46.508708333
        NUMBER_OF_FRAMES: 34202
        NUMBER_OF_BYTES : 113742419
        _STATISTICS_WRITING_APP: mkvpropedit v66.0.0 ('Josie') 64-bit
        _STATISTICS_WRITING_DATE_UTC: 2025-05-26 13:41:00
        _STATISTICS_TAGS: BPS DURATION NUMBER_OF_FRAMES NUMBER_OF_BYTES
  Stream #0:1: Audio: aac (LC), 48000 Hz, stereo, fltp (default)
      Metadata:
        HANDLER_NAME    : SoundHandler
        VENDOR_ID       : [0][0][0][0]
        ENCODER         : Lavc61.19.100 aac
        BPS             : 193221
        DURATION        : 00:23:46.688000000
        NUMBER_OF_FRAMES: 66877
        NUMBER_OF_BYTES : 34458275
        _STATISTICS_WRITING_APP: mkvpropedit v66.0.0 ('Josie') 64-bit
        _STATISTICS_WRITING_DATE_UTC: 2025-05-26 13:41:00
        _STATISTICS_TAGS: BPS DURATION NUMBER_OF_FRAMES NUMBER_OF_BYTES
Input #1, mov,mp4,m4a,3gp,3g2,mj2, from 'G:\Аниме\Онгоинги\!_34_Весна_2024\DreamCast\Мой сосед-ёкай\[DC] Tonari no Youkai-san - 07_Telegram.mp4':
  Metadata:
    major_brand     : isom
    minor_version   : 512
    compatible_brands: isomiso2avc1mp41
    encoder         : Lavf60.16.100
  Duration: 00:23:46.63, start: 0.000000, bitrate: 3669 kb/s
  Stream #1:0[0x1](und): Video: h264 (High) (avc1 / 0x31637661), yuv420p(tv, bt709, progressive), 1920x1080 [SAR 1:1 DAR 16:9], 3522 kb/s, 23.98 fps, 23.98 tbr, 24k tbn (default)
      Metadata:
        handler_name    : VideoHandler
        vendor_id       : [0][0][0][0]
        encoder         : Lavc60.31.102 h264_qsv
  Stream #1:1[0x2](und): Audio: aac (HE-AACv2) (mp4a / 0x6134706D), 48000 Hz, stereo, fltp, 144 kb/s (default)
      Metadata:
        handler_name    : SoundHandler
        vendor_id       : [0][0][0][0]
Stream mapping:
  Stream #0:0 (hevc) -> settb:default
  Stream #1:0 (h264) -> settb:default
  psnr:default -> Stream #0:0 (wrapped_avframe)
  Stream #0:1 -> #0:1 (aac (native) -> pcm_s16le (native))
Output #0, null, to 'pipe:':
  Metadata:
    COMPATIBLE_BRANDS: isomiso2avc1mp41
    MAJOR_BRAND     : isom
    MINOR_VERSION   : 512
    encoder         : Lavf61.7.100
  Stream #0:0: Video: wrapped_avframe, yuv420p10le(tv, bt709, progressive), 1920x1080 [SAR 1:1 DAR 16:9], q=2-31, 200 kb/s, 23.98 fps, 23.98 tbn
      Metadata:
        encoder         : Lavc61.19.100 wrapped_avframe
  Stream #0:1: Audio: pcm_s16le, 48000 Hz, stereo, s16, 1536 kb/s (default)
      Metadata:
        HANDLER_NAME    : SoundHandler
        VENDOR_ID       : [0][0][0][0]
        _STATISTICS_TAGS: BPS DURATION NUMBER_OF_FRAMES NUMBER_OF_BYTES
        BPS             : 193221
        DURATION        : 00:23:46.688000000
        NUMBER_OF_FRAMES: 66877
        NUMBER_OF_BYTES : 34458275
        _STATISTICS_WRITING_APP: mkvpropedit v66.0.0 ('Josie') 64-bit
        _STATISTICS_WRITING_DATE_UTC: 2025-05-26 13:41:00
        encoder         : Lavc61.19.100 pcm_s16le
frame=  181 fps=0.0 q=-0.0 size=N/A time=00:00:07.54 bitrate=N/A speed=14.8x    frame=  380 fps=373 q=-0.0 size=N/A time=00:00:15.84 bitrate=N/A speed=15.6x    frame=  596 fps=387 q=-0.0 size=N/A time=00:00:24.85 bitrate=N/A speed=16.2x    frame=  802 fps=392 q=-0.0 size=N/A time=00:00:33.45 bitrate=N/A speed=16.3x    frame= 1040 fps=404 q=-0.0 size=N/A time=00:00:43.37 bitrate=N/A speed=16.9x    frame= 1254 fps=407 q=-0.0 size=N/A time=00:00:52.30 bitrate=N/A speed=  17x    frame= 1458 fps=405 q=-0.0 size=N/A time=00:01:00.81 bitrate=N/A speed=16.9x    frame= 1662 fps=404 q=-0.0 size=N/A time=00:01:09.31 bitrate=N/A speed=16.9x    frame= 1891 fps=408 q=-0.0 size=N/A time=00:01:18.87 bitrate=N/A speed=  17x    frame= 2078 fps=404 q=-0.0 size=N/A time=00:01:26.66 bitrate=N/A speed=16.9x    frame= 2336 fps=412 q=-0.0 size=N/A time=00:01:37.43 bitrate=N/A speed=17.2x    frame= 2574 fps=417 q=-0.0 size=N/A time=00:01:47.35 bitrate=N/A speed=17.4x    frame= 2799 fps=418 q=-0.0 size=N/A time=00:01:56.74 bitrate=N/A speed=17.4x    frame= 3034 fps=420 q=-0.0 size=N/A time=00:02:06.54 bitrate=N/A speed=17.5x    frame= 3307 fps=427 q=-0.0 size=N/A time=00:02:17.92 bitrate=N/A speed=17.8x    frame= 3580 fps=433 q=-0.0 size=N/A time=00:02:29.31 bitrate=N/A speed=18.1x    frame= 3857 fps=440 q=-0.0 size=N/A time=00:02:40.86 bitrate=N/A speed=18.3x    frame= 4143 fps=446 q=-0.0 size=N/A time=00:02:52.79 bitrate=N/A speed=18.6x    frame= 4390 fps=448 q=-0.0 size=N/A time=00:03:03.09 bitrate=N/A speed=18.7x    frame= 4622 fps=448 q=-0.0 size=N/A time=00:03:12.77 bitrate=N/A speed=18.7x    frame= 4854 fps=448 q=-0.0 size=N/A time=00:03:22.45 bitrate=N/A speed=18.7x    frame= 5129 fps=452 q=-0.0 size=N/A time=00:03:33.92 bitrate=N/A speed=18.8x    frame= 5377 fps=453 q=-0.0 size=N/A time=00:03:44.26 bitrate=N/A speed=18.9x    frame= 5636 fps=454 q=-0.0 size=N/A time=00:03:55.06 bitrate=N/A speed=  19x    frame= 5844 fps=453 q=-0.0 size=N/A time=00:04:03.74 bitrate=N/A speed=18.9x    frame= 6088 fps=453 q=-0.0 size=N/A time=00:04:13.92 bitrate=N/A speed=18.9x    frame= 6353 fps=455 q=-0.0 size=N/A time=00:04:24.97 bitrate=N/A speed=  19x    frame= 6591 fps=456 q=-0.0 size=N/A time=00:04:34.89 bitrate=N/A speed=  19x    frame= 6858 fps=458 q=-0.0 size=N/A time=00:04:46.03 bitrate=N/A speed=19.1x    frame= 7125 fps=460 q=-0.0 size=N/A time=00:04:57.17 bitrate=N/A speed=19.2x    frame= 7395 fps=462 q=-0.0 size=N/A time=00:05:08.43 bitrate=N/A speed=19.3x    frame= 7652 fps=463 q=-0.0 size=N/A time=00:05:19.15 bitrate=N/A speed=19.3x    frame= 7923 fps=465 q=-0.0 size=N/A time=00:05:30.45 bitrate=N/A speed=19.4x    frame= 8185 fps=466 q=-0.0 size=N/A time=00:05:41.38 bitrate=N/A speed=19.5x    frame= 8429 fps=467 q=-0.0 size=N/A time=00:05:51.55 bitrate=N/A speed=19.5x    frame= 8666 fps=466 q=-0.0 size=N/A time=00:06:01.44 bitrate=N/A speed=19.4x    frame= 8944 fps=468 q=-0.0 size=N/A time=00:06:13.03 bitrate=N/A speed=19.5x    frame= 9219 fps=470 q=-0.0 size=N/A time=00:06:24.50 bitrate=N/A speed=19.6x    frame= 9490 fps=471 q=-0.0 size=N/A time=00:06:35.81 bitrate=N/A speed=19.7x    frame= 9737 fps=472 q=-0.0 size=N/A time=00:06:46.11 bitrate=N/A speed=19.7x    frame=10027 fps=474 q=-0.0 size=N/A time=00:06:58.20 bitrate=N/A speed=19.8x    frame=10272 fps=474 q=-0.0 size=N/A time=00:07:08.42 bitrate=N/A speed=19.8x    frame=10553 fps=475 q=-0.0 size=N/A time=00:07:20.14 bitrate=N/A speed=19.8x    frame=10830 fps=477 q=-0.0 size=N/A time=00:07:31.70 bitrate=N/A speed=19.9x    frame=11110 fps=478 q=-0.0 size=N/A time=00:07:43.37 bitrate=N/A speed=19.9x    frame=11358 fps=478 q=-0.0 size=N/A time=00:07:53.72 bitrate=N/A speed=  20x    frame=11631 fps=479 q=-0.0 size=N/A time=00:08:05.10 bitrate=N/A speed=  20x    frame=11900 fps=480 q=-0.0 size=N/A time=00:08:16.32 bitrate=N/A speed=  20x    frame=12183 fps=482 q=-0.0 size=N/A time=00:08:28.13 bitrate=N/A speed=20.1x    frame=12434 fps=482 q=-0.0 size=N/A time=00:08:38.60 bitrate=N/A speed=20.1x    frame=12695 fps=482 q=-0.0 size=N/A time=00:08:49.48 bitrate=N/A speed=20.1x    frame=12954 fps=483 q=-0.0 size=N/A time=00:09:00.28 bitrate=N/A speed=20.1x    frame=13195 fps=483 q=-0.0 size=N/A time=00:09:10.34 bitrate=N/A speed=20.1x    frame=13437 fps=482 q=-0.0 size=N/A time=00:09:20.43 bitrate=N/A speed=20.1x    frame=13690 fps=482 q=-0.0 size=N/A time=00:09:30.98 bitrate=N/A speed=20.1x    frame=13962 fps=483 q=-0.0 size=N/A time=00:09:42.33 bitrate=N/A speed=20.1x    frame=14185 fps=482 q=-0.0 size=N/A time=00:09:51.63 bitrate=N/A speed=20.1x    frame=14443 fps=483 q=-0.0 size=N/A time=00:10:02.39 bitrate=N/A speed=20.1x    frame=14682 fps=482 q=-0.0 size=N/A time=00:10:12.36 bitrate=N/A speed=20.1x    frame=14944 fps=483 q=-0.0 size=N/A time=00:10:23.28 bitrate=N/A speed=20.1x    frame=15220 fps=484 q=-0.0 size=N/A time=00:10:34.80 bitrate=N/A speed=20.2x    frame=15458 fps=483 q=-0.0 size=N/A time=00:10:44.72 bitrate=N/A speed=20.2x    frame=15715 fps=484 q=-0.0 size=N/A time=00:10:55.44 bitrate=N/A speed=20.2x    frame=15952 fps=483 q=-0.0 size=N/A time=00:11:05.33 bitrate=N/A speed=20.1x    frame=16171 fps=482 q=-0.0 size=N/A time=00:11:14.46 bitrate=N/A speed=20.1x    frame=16441 fps=483 q=-0.0 size=N/A time=00:11:25.72 bitrate=N/A speed=20.1x    frame=16686 fps=483 q=-0.0 size=N/A time=00:11:35.94 bitrate=N/A speed=20.1x    frame=16935 fps=483 q=-0.0 size=N/A time=00:11:46.33 bitrate=N/A speed=20.1x    frame=17195 fps=483 q=-0.0 size=N/A time=00:11:57.17 bitrate=N/A speed=20.1x    frame=17434 fps=483 q=-0.0 size=N/A time=00:12:07.14 bitrate=N/A speed=20.1x    frame=17698 fps=483 q=-0.0 size=N/A time=00:12:18.15 bitrate=N/A speed=20.2x    frame=17956 fps=483 q=-0.0 size=N/A time=00:12:28.91 bitrate=N/A speed=20.2x    frame=18195 fps=483 q=-0.0 size=N/A time=00:12:38.88 bitrate=N/A speed=20.1x    frame=18441 fps=483 q=-0.0 size=N/A time=00:12:49.14 bitrate=N/A speed=20.1x    frame=18688 fps=483 q=-0.0 size=N/A time=00:12:59.44 bitrate=N/A speed=20.1x    frame=18968 fps=484 q=-0.0 size=N/A time=00:13:11.12 bitrate=N/A speed=20.2x    frame=19243 fps=484 q=-0.0 size=N/A time=00:13:22.59 bitrate=N/A speed=20.2x    frame=19500 fps=485 q=-0.0 size=N/A time=00:13:33.31 bitrate=N/A speed=20.2x    frame=19753 fps=485 q=-0.0 size=N/A time=00:13:43.86 bitrate=N/A speed=20.2x    frame=20035 fps=485 q=-0.0 size=N/A time=00:13:55.62 bitrate=N/A speed=20.2x    frame=20279 fps=485 q=-0.0 size=N/A time=00:14:05.80 bitrate=N/A speed=20.2x    frame=20520 fps=485 q=-0.0 size=N/A time=00:14:15.85 bitrate=N/A speed=20.2x    frame=20769 fps=485 q=-0.0 size=N/A time=00:14:26.24 bitrate=N/A speed=20.2x    frame=21011 fps=485 q=-0.0 size=N/A time=00:14:36.33 bitrate=N/A speed=20.2x    frame=21251 fps=485 q=-0.0 size=N/A time=00:14:46.34 bitrate=N/A speed=20.2x    frame=21490 fps=484 q=-0.0 size=N/A time=00:14:56.31 bitrate=N/A speed=20.2x    frame=21732 fps=484 q=-0.0 size=N/A time=00:15:06.40 bitrate=N/A speed=20.2x    frame=21964 fps=484 q=-0.0 size=N/A time=00:15:16.08 bitrate=N/A speed=20.2x    frame=22216 fps=484 q=-0.0 size=N/A time=00:15:26.59 bitrate=N/A speed=20.2x    frame=22455 fps=484 q=-0.0 size=N/A time=00:15:36.56 bitrate=N/A speed=20.2x    frame=22715 fps=484 q=-0.0 size=N/A time=00:15:47.40 bitrate=N/A speed=20.2x    frame=22990 fps=484 q=-0.0 size=N/A time=00:15:58.87 bitrate=N/A speed=20.2x    frame=23241 fps=484 q=-0.0 size=N/A time=00:16:09.34 bitrate=N/A speed=20.2x    frame=23461 fps=484 q=-0.0 size=N/A time=00:16:18.51 bitrate=N/A speed=20.2x    frame=23712 fps=484 q=-0.0 size=N/A time=00:16:28.98 bitrate=N/A speed=20.2x    frame=23919 fps=483 q=-0.0 size=N/A time=00:16:37.62 bitrate=N/A speed=20.1x    frame=24170 fps=483 q=-0.0 size=N/A time=00:16:48.09 bitrate=N/A speed=20.1x    frame=24440 fps=484 q=-0.0 size=N/A time=00:16:59.35 bitrate=N/A speed=20.2x    frame=24716 fps=484 q=-0.0 size=N/A time=00:17:10.86 bitrate=N/A speed=20.2x    frame=24969 fps=484 q=-0.0 size=N/A time=00:17:21.41 bitrate=N/A speed=20.2x    frame=25236 fps=484 q=-0.0 size=N/A time=00:17:32.55 bitrate=N/A speed=20.2x    frame=25499 fps=485 q=-0.0 size=N/A time=00:17:43.52 bitrate=N/A speed=20.2x    frame=25778 fps=485 q=-0.0 size=N/A time=00:17:55.15 bitrate=N/A speed=20.2x    frame=26035 fps=485 q=-0.0 size=N/A time=00:18:05.87 bitrate=N/A speed=20.2x    frame=26280 fps=485 q=-0.0 size=N/A time=00:18:16.09 bitrate=N/A speed=20.2x    frame=26552 fps=486 q=-0.0 size=N/A time=00:18:27.43 bitrate=N/A speed=20.3x    frame=26807 fps=486 q=-0.0 size=N/A time=00:18:38.07 bitrate=N/A speed=20.3x    frame=27048 fps=486 q=-0.0 size=N/A time=00:18:48.12 bitrate=N/A speed=20.3x    frame=27323 fps=486 q=-0.0 size=N/A time=00:18:59.59 bitrate=N/A speed=20.3x    frame=27556 fps=486 q=-0.0 size=N/A time=00:19:09.31 bitrate=N/A speed=20.3x    frame=27810 fps=486 q=-0.0 size=N/A time=00:19:19.90 bitrate=N/A speed=20.3x    frame=28071 fps=486 q=-0.0 size=N/A time=00:19:30.79 bitrate=N/A speed=20.3x    frame=28299 fps=485 q=-0.0 size=N/A time=00:19:40.30 bitrate=N/A speed=20.2x    frame=28552 fps=486 q=-0.0 size=N/A time=00:19:50.85 bitrate=N/A speed=20.3x    frame=28800 fps=485 q=-0.0 size=N/A time=00:20:01.20 bitrate=N/A speed=20.2x    frame=29050 fps=486 q=-0.0 size=N/A time=00:20:11.62 bitrate=N/A speed=20.3x    frame=29294 fps=485 q=-0.0 size=N/A time=00:20:21.80 bitrate=N/A speed=20.2x    frame=29546 fps=485 q=-0.0 size=N/A time=00:20:32.31 bitrate=N/A speed=20.2x    frame=29809 fps=486 q=-0.0 size=N/A time=00:20:43.28 bitrate=N/A speed=20.3x    frame=30061 fps=486 q=-0.0 size=N/A time=00:20:53.79 bitrate=N/A speed=20.3x    frame=30319 fps=486 q=-0.0 size=N/A time=00:21:04.55 bitrate=N/A speed=20.3x    frame=30584 fps=486 q=-0.0 size=N/A time=00:21:15.60 bitrate=N/A speed=20.3x    frame=30858 fps=486 q=-0.0 size=N/A time=00:21:27.03 bitrate=N/A speed=20.3x    frame=31074 fps=486 q=-0.0 size=N/A time=00:21:36.04 bitrate=N/A speed=20.3x    frame=31333 fps=486 q=-0.0 size=N/A time=00:21:46.84 bitrate=N/A speed=20.3x    frame=31619 fps=487 q=-0.0 size=N/A time=00:21:58.77 bitrate=N/A speed=20.3x    frame=31868 fps=486 q=-0.0 size=N/A time=00:22:09.16 bitrate=N/A speed=20.3x    frame=32146 fps=487 q=-0.0 size=N/A time=00:22:20.75 bitrate=N/A speed=20.3x    frame=32423 fps=487 q=-0.0 size=N/A time=00:22:32.30 bitrate=N/A speed=20.3x    frame=32703 fps=488 q=-0.0 size=N/A time=00:22:43.98 bitrate=N/A speed=20.3x    frame=32965 fps=488 q=-0.0 size=N/A time=00:22:54.91 bitrate=N/A speed=20.3x    frame=33242 fps=488 q=-0.0 size=N/A time=00:23:06.46 bitrate=N/A speed=20.4x    frame=33499 fps=488 q=-0.0 size=N/A time=00:23:17.18 bitrate=N/A speed=20.4x    frame=33698 fps=488 q=-0.0 size=N/A time=00:23:25.48 bitrate=N/A speed=20.3x    frame=33909 fps=487 q=-0.0 size=N/A time=00:23:34.28 bitrate=N/A speed=20.3x    frame=34143 fps=487 q=-0.0 size=N/A time=00:23:44.04 bitrate=N/A speed=20.3x    [Parsed_psnr_10 @ 0000024bfa547800] PSNR y:49.287191 u:51.396416 v:51.630305 average:49.910079 min:41.818029 max:inf
[out#0/null @ 0000024bed064e80] video:14696KiB audio:267508KiB subtitle:0KiB other streams:0KiB global headers:0KiB muxing overhead: unknown
frame=34202 fps=487 q=-0.0 Lsize=N/A time=00:23:46.50 bitrate=N/A speed=20.3x    
